<?xml version="1.0" encoding="UTF-8" standalone="no"?>
<!DOCTYPE svg PUBLIC "-//W3C//DTD SVG 1.1//EN" "http://www.w3.org/Graphics/SVG/1.1/DTD/svg11.dtd">
<svg width="100%" height="100%" viewBox="0 0 3000 1220" version="1.1" xmlns="http://www.w3.org/2000/svg" xmlns:xlink="http://www.w3.org/1999/xlink" xml:space="preserve" xmlns:serif="http://www.serif.com/" style="fill-rule:evenodd;clip-rule:evenodd;stroke-linejoin:round;stroke-miterlimit:2;">
    <g transform="matrix(6.45161,0,0,6.45161,0,0)">
        <path d="M11.446,45.11C10.331,44.735 10.894,46.55 9.783,46.772C8.675,46.997 7.344,47.549 8.232,47.774C9.119,47.993 11.113,47.661 11.338,47.328C11.559,46.997 11.78,45.221 11.446,45.11Z" style="fill:rgb(216,216,216);fill-opacity:0.47;stroke:rgb(181,181,181);stroke-width:0.24px;"/>
        <path d="M2.907,47.549C1.576,47.441 0.242,47.549 0.023,47.993C-0.201,48.44 1.242,48.771 2.129,48.771C3.016,48.771 4.79,48.214 4.459,48.106C4.126,47.993 2.907,47.549 2.907,47.549Z" style="fill:rgb(216,216,216);fill-opacity:0.47;stroke:rgb(181,181,181);stroke-width:0.24px;"/>
        <path d="M10.228,37.898C9.777,38.034 11.004,38.785 11.446,38.785C11.893,38.785 12.669,37.565 11.78,37.565C10.894,37.565 11.338,37.565 10.228,37.898Z" style="fill:rgb(216,216,216);fill-opacity:0.47;stroke:rgb(181,181,181);stroke-width:0.24px;"/>
        <path d="M64.923,49.656C64.015,49.357 65.254,50.989 65.808,51.321C66.363,51.655 67.473,51.655 67.585,52.209C67.694,52.766 68.028,54.096 68.583,53.984C69.138,53.873 69.138,52.654 68.695,52.209C68.251,51.767 66.588,50.434 66.254,50.434C65.92,50.434 65.254,49.769 64.923,49.656ZM110.409,53.319C110.409,53.916 111.517,53.984 112.181,53.652C112.849,53.319 113.848,53.099 114.292,52.987C114.735,52.875 114.514,53.539 115.511,53.539C116.511,53.539 117.731,53.873 118.065,53.764C118.397,53.652 119.395,52.322 118.617,52.209C117.84,52.099 116.622,51.321 115.958,50.657C115.292,49.992 113.738,51.545 112.293,52.099C110.852,52.654 110.409,52.434 110.409,53.319ZM121.947,61.861C122.2,62.367 123.391,61.972 124.055,61.306C124.72,60.64 126.163,60.42 126.609,59.862C127.047,59.31 127.383,59.422 128.491,58.978C129.602,58.532 130.49,58.423 130.046,57.867C129.602,57.314 127.272,57.867 126.94,57.648C126.609,57.425 124.276,60.087 124.276,60.087C124.276,60.087 122.281,60.863 122.168,61.195C122.058,61.528 121.615,61.195 121.947,61.861ZM115.733,61.861C116.843,61.983 116.843,60.42 116.732,59.974C116.622,59.53 116.622,57.648 117.068,57.314C117.506,56.98 118.065,55.982 119.284,55.87C120.503,55.759 121.283,56.647 121.169,57.648C121.058,58.645 121.392,59.643 121.836,59.643C122.281,59.643 123.61,58.865 123.166,58.201C122.723,57.535 123.498,55.315 123.498,56.093C123.498,56.869 124.389,57.425 124.943,57.314C125.499,57.203 124.389,55.204 123.61,55.094C122.834,54.983 121.283,54.983 120.949,55.094C120.616,55.204 118.729,54.537 117.84,54.65C116.956,54.761 115.624,55.094 115.18,55.982C114.735,56.869 115.18,58.532 115.069,59.197C114.96,59.862 114.735,61.75 115.733,61.861ZM14.109,28.8L14.777,29.357C15.44,29.909 16.551,30.129 17.548,30.242C18.55,30.354 18.55,29.69 17.772,29.024C16.997,28.359 16.772,28.466 16.106,28.359C15.44,28.247 15.332,27.581 13.558,27.581C11.78,27.581 12.003,26.694 11.78,26.25C11.559,25.804 13.333,26.026 13.779,26.136C14.224,26.25 15.996,24.804 15.996,24.804C15.996,24.804 18.881,23.698 19.213,23.919C19.547,24.139 21.212,23.698 21.987,23.474C22.765,23.253 23.208,22.033 23.208,22.033C23.208,22.033 24.207,22.368 24.762,22.921C25.315,23.474 26.538,22.921 26.87,22.921C27.202,22.921 28.867,24.031 28.867,24.031C28.867,24.031 31.085,24.031 31.972,23.919C32.861,23.807 35.19,23.807 36.079,24.031C36.964,24.252 40.958,24.472 41.404,24.472C41.847,24.472 44.063,25.249 45.507,24.916C46.951,24.584 47.615,25.139 47.949,25.249C48.278,25.361 48.612,25.361 49.169,26.026C49.723,26.694 50.277,26.136 51.056,25.693C51.83,25.249 51.721,24.804 51.721,24.804L52.387,24.695C53.053,24.584 53.495,24.916 55.382,25.03C57.268,25.139 56.824,24.695 58.153,24.252C59.486,23.807 60.818,24.804 61.262,24.695C61.705,24.584 62.26,23.698 62.594,24.139C62.927,24.584 63.479,25.472 63.479,25.472C63.479,25.472 64.923,24.364 65.365,24.364C65.808,24.364 67.143,24.804 67.919,24.695C68.695,24.584 71.69,24.584 72.356,25.139C73.02,25.693 74.685,25.582 75.572,26.136C76.459,26.694 77.348,25.693 76.903,25.472C76.459,25.249 75.351,24.364 75.351,24.364C75.351,24.364 73.685,22.368 73.464,22.033C73.245,21.701 72.911,21.701 72.466,22.588C72.022,23.474 70.359,23.474 68.472,23.586C66.588,23.698 67.807,22.701 65.699,22.588C63.591,22.477 64.37,21.701 65.033,21.701C65.699,21.701 66.142,20.368 66.363,19.591C66.588,18.814 67.362,18.926 68.917,19.038C70.466,19.149 70.912,18.814 72.466,19.038C74.019,19.26 73.908,18.373 75.461,18.482C77.014,18.593 76.237,18.814 77.126,19.371C78.013,19.924 78.568,19.814 79.787,20.368C81.008,20.924 80.565,20.924 81.12,21.037C81.675,21.145 83.562,20.814 84.668,20.702C85.778,20.592 86.667,20.478 87.222,21.145C87.777,21.811 87.667,22.588 88.445,23.141C89.219,23.698 87.999,21.145 87.999,20.258C87.999,19.371 89.551,20.146 90.551,20.146C91.55,20.146 92.656,19.814 92.879,20.258C93.103,20.702 91.438,21.368 92.435,22.368C93.435,23.366 94.1,23.698 94.987,23.698C95.874,23.698 97.871,23.919 96.984,25.139C96.097,26.359 93.77,26.25 92.992,26.25C92.214,26.25 90.882,26.694 91.216,27.358C91.55,28.024 93.324,27.691 94.543,27.691C95.766,27.691 99.535,28.024 100.533,27.691C101.534,27.358 101.311,26.026 100.201,25.693C99.092,25.361 99.979,24.695 101.091,24.916C102.202,25.139 103.308,24.584 103.086,24.916C102.865,25.249 103.199,26.026 103.199,26.914C103.199,27.801 103.529,28.359 104.305,28.134C105.083,27.914 105.194,27.801 105.971,27.691C106.749,27.581 106.304,25.693 105.858,24.695C105.419,23.698 105.083,23.141 105.194,22.588C105.307,22.033 106.526,21.923 107.189,22.477C107.857,23.033 108.744,24.139 108.744,24.139C108.744,24.139 110.077,24.916 110.52,25.804C110.964,26.694 111.075,26.472 111.962,25.916C112.849,25.361 113.07,25.472 113.848,26.026C114.626,26.582 114.069,27.691 114.069,28.024C114.069,28.359 115.18,28.024 115.399,27.358C115.624,26.694 116.511,26.694 117.068,26.472C117.619,26.25 117.619,24.916 117.619,24.916C117.619,24.916 116.177,24.584 114.735,24.695C113.295,24.804 112.849,24.584 111.742,23.807C110.632,23.033 111.296,22.477 110.741,21.701C110.186,20.924 112.517,20.478 113.959,19.814C115.399,19.149 116.843,19.591 116.511,21.256C116.177,22.921 115.958,22.701 117.619,22.368C119.284,22.033 117.506,20.592 118.285,20.478C119.063,20.368 121.058,20.036 121.726,20.146C122.39,20.258 126.05,19.814 126.94,19.814C127.828,19.814 129.268,20.592 130.267,21.145C131.267,21.701 133.929,22.477 134.593,22.809C135.259,23.141 139.918,23.807 140.363,23.919C140.808,24.031 140.808,25.361 141.25,26.472C141.696,27.581 142.915,26.805 143.358,26.805C143.802,26.805 145.356,27.581 145.799,28.134C146.242,28.692 149.572,29.132 149.572,29.132C149.572,29.132 148.796,30.129 148.462,30.463C148.13,30.797 147.352,31.019 146.688,31.463C146.021,31.907 145.244,31.352 144.355,30.797C143.47,30.242 141.914,29.909 141.584,30.129C141.25,30.354 141.475,30.797 141.696,31.128C141.914,31.463 143.358,31.907 144.247,32.573C145.133,33.24 144.912,33.906 145.023,34.791C145.133,35.68 144.134,34.458 143.026,34.238C141.914,34.017 141.805,35.123 141.805,35.123C141.805,35.123 140.363,35.014 139.697,35.014C139.032,35.014 139.697,35.014 138.477,34.125C137.258,33.24 137.479,34.682 136.813,34.238C136.149,33.793 135.484,33.128 135.148,33.349C134.814,33.572 133.706,32.351 133.039,32.462C132.373,32.573 129.714,32.127 129.05,32.351C128.381,32.573 127.828,32.573 127.272,32.795C126.715,33.018 126.496,31.24 126.828,30.687C127.16,30.129 127.938,30.022 129.38,30.354C130.82,30.687 130.933,30.354 131.267,29.797C131.599,29.244 131.93,28.692 133.483,28.247C135.04,27.801 133.375,27.468 132.932,27.248C132.485,27.026 131.93,26.582 131.599,27.248C131.267,27.914 130.49,28.692 130.49,28.692C130.49,28.692 129.602,28.692 128.381,28.58C127.16,28.466 128.048,28.024 128.604,27.801C129.157,27.581 129.825,26.25 129.268,25.916C128.714,25.582 128.491,25.361 127.494,25.582C126.496,25.804 127.16,24.804 126.496,24.472C125.831,24.139 126.05,24.695 126.05,25.139C126.05,25.582 125.052,25.472 125.052,25.472C125.052,25.472 123.498,25.249 122.945,25.472C122.39,25.693 121.392,26.136 121.726,26.472C122.058,26.805 123.166,26.805 123.498,27.801C123.832,28.8 122.058,29.024 121.726,29.132C121.392,29.244 120.061,29.69 120.061,29.69C120.061,29.69 118.729,29.357 117.619,29.357C116.511,29.357 116.177,29.465 116.4,29.909C116.622,30.354 117.177,30.129 117.506,30.129C117.84,30.129 117.84,30.687 118.84,30.463C119.839,30.242 119.618,29.909 120.503,30.797C121.392,31.685 122.281,31.572 123.723,32.351C125.163,33.128 123.498,34.017 122.723,34.017C121.947,34.017 121.947,33.349 121.502,32.685C121.058,32.017 119.284,32.795 119.284,32.795C119.284,32.795 117.84,33.572 117.068,33.572C116.29,33.572 115.733,33.46 116.732,32.685C117.731,31.907 115.511,31.795 115.511,30.687C115.511,29.577 115.069,31.795 115.069,32.351C115.069,32.904 114.182,32.462 112.293,32.685C110.409,32.904 110.741,33.572 108.299,35.123C105.858,36.677 105.307,37.01 105.526,38.453C105.75,39.895 106.304,39.451 107.302,39.674C108.299,39.895 107.966,41.558 108.744,41.446C109.522,41.338 110.077,40.78 111.63,41.558C113.183,42.335 113.959,42.557 115.845,42.889C117.731,43.221 118.951,43.778 119.952,43.555C120.949,43.333 121.615,43.666 121.615,44.443C121.615,45.221 122.281,45.331 122.168,46.331C122.058,47.328 123.391,45.44 123.391,45.44C123.391,45.44 123.942,47.109 123.498,47.328C123.057,47.549 123.61,48.547 124.166,48.44C124.72,48.326 125.499,48.771 126.163,48.214C126.828,47.661 125.831,45.999 125.831,45.331C125.831,44.667 125.163,44.334 124.831,43.666C124.497,43.001 125.718,42.889 126.163,43.555C126.609,44.221 127.383,43.666 128.16,43.111C128.936,42.557 128.936,41.558 128.936,41.558C128.936,41.558 127.606,39.783 126.609,39.341C125.607,38.896 126.05,38.785 127.047,38.564C128.048,38.34 127.047,38.009 127.272,36.788C127.494,35.567 127.494,34.791 128.048,34.791C128.604,34.791 130.599,34.458 132.264,34.57C133.929,34.682 134.706,35.9 135.816,36.013C136.924,36.121 138.698,36.344 139.032,36.899C139.364,37.453 137.811,37.565 138.589,38.453C139.364,39.341 139.476,39.23 140.252,39.563C141.029,39.895 141.914,39.674 142.915,38.34C143.917,37.01 144.355,36.899 144.687,37.121C145.023,37.342 147.132,39.783 147.686,40.339C148.241,40.893 149.349,42.11 149.459,42.669C149.572,43.221 151.125,43.221 151.567,43.221C152.012,43.221 153.675,44.443 153.896,45.11C154.121,45.775 154.564,45.999 156.004,46.331C157.448,46.663 156.004,47.881 155.672,48.547C155.34,49.215 155.119,49.436 154.674,50.212C154.232,50.989 154.674,50.212 155.228,50.544C155.783,50.879 156.004,51.321 156.893,51.101C157.782,50.879 158.224,51.101 158.558,51.767C158.89,52.434 159.334,52.987 159.668,53.539C159.998,54.096 159.668,54.983 159.222,54.43C158.781,53.873 157.335,54.205 157.335,54.205C157.335,54.205 156.671,54.87 156.45,54.537C156.229,54.205 155.783,53.764 155.006,53.984C154.232,54.205 153.456,53.984 152.567,54.096C151.678,54.205 151.346,53.652 151.901,53.207C152.456,52.766 152.567,51.101 153.675,50.434C154.785,49.769 154.453,48.771 153.675,48.771C152.898,48.771 152.567,49.769 152.122,49.992C151.678,50.212 150.791,50.212 150.013,50.767C149.238,51.321 147.352,51.101 148.13,51.321C148.906,51.545 147.02,52.434 146.354,52.434C145.687,52.434 145.91,50.989 145.91,50.434C145.91,49.878 145.023,50.767 145.023,50.767C145.023,50.767 143.247,49.769 142.582,50.434C141.914,51.101 140.917,51.433 140.142,52.099C139.364,52.766 137.59,53.873 137.59,53.873C137.59,53.873 138.255,53.539 139.587,53.207C140.917,52.875 140.808,52.987 141.914,52.434C143.026,51.878 144.134,51.655 144.912,52.654C145.687,53.652 144.581,54.205 144.581,54.205C144.581,54.205 145.023,54.983 145.465,55.204C145.91,55.427 146.021,54.983 146.797,54.537C147.573,54.096 147.241,55.427 147.464,55.87C147.686,56.314 148.462,56.314 148.906,55.759C149.349,55.204 149.681,54.761 150.013,55.094C150.347,55.427 150.682,56.203 151.012,56.98C151.346,57.758 148.683,57.979 148.241,58.089C147.798,58.201 145.687,58.645 145.356,58.756C145.023,58.865 143.917,59.862 143.026,59.862C142.139,59.862 142.248,58.532 142.139,57.758C142.026,56.98 140.917,57.867 140.808,58.201C140.697,58.532 139.697,58.423 138.921,58.532C138.145,58.645 136.813,59.422 136.813,60.307C136.813,61.195 137.811,61.64 137.479,62.082C137.147,62.527 135.148,62.86 134.372,62.638C133.596,62.415 132.485,62.971 132.819,63.416C133.151,63.858 132.932,64.524 132.154,64.415C131.375,64.302 131.267,65.081 131.599,65.633C131.93,66.187 130.599,67.296 130.267,66.853C129.935,66.411 129.268,66.187 129.268,66.853C129.268,67.518 129.489,68.073 130.157,68.961C130.82,69.848 128.714,70.406 127.938,71.071C127.16,71.735 124.497,73.954 123.391,74.398C122.281,74.841 122.281,76.285 122.834,76.837C123.391,77.394 124.055,79.721 124.389,80.499C124.72,81.277 124.276,83.493 123.278,83.385C122.281,83.273 122.834,81.942 121.836,81.609C120.837,81.277 120.282,79.279 120.061,77.947C119.839,76.617 119.618,77.394 118.951,77.835C118.285,78.28 117.619,76.949 117.287,76.617C116.956,76.285 115.069,76.837 113.738,76.729C112.406,76.617 111.962,77.281 111.962,77.614C111.962,77.947 111.742,78.944 110.52,78.28C109.301,77.614 109.076,77.614 107.857,77.614C106.636,77.614 105.526,77.502 105.307,77.947C105.083,78.391 103.863,79.39 103.086,79.613C102.308,79.835 100.868,80.944 101.534,81.164C102.202,81.387 102.202,82.94 101.755,83.826C101.311,84.714 101.421,86.268 101.643,87.82C101.866,89.375 103.199,90.373 104.418,91.371C105.637,92.371 106.083,92.704 107.302,91.815C108.524,90.928 108.963,91.483 109.301,91.593C109.631,91.705 110.52,91.038 110.186,90.04C109.854,89.044 110.632,88.153 111.63,88.265C112.627,88.378 114.069,87.932 114.846,88.045C115.624,88.153 116.066,90.26 114.846,91.149C113.627,92.038 114.292,93.37 114.069,94.369C113.848,95.365 112.849,95.586 114.069,95.586C115.292,95.586 114.96,95.809 115.733,95.919C116.511,96.031 117.287,95.254 118.065,95.141C118.84,95.034 120.837,96.807 120.503,97.696C120.173,98.584 119.839,100.135 119.952,101.576C120.061,103.019 120.503,103.132 120.725,103.574C120.949,104.019 121.836,105.019 122.834,104.575C123.832,104.129 124.831,103.796 125.163,103.352C125.499,102.91 127.606,104.129 127.383,104.464C127.16,104.794 128.16,105.129 128.823,104.794C129.489,104.464 129.825,103.906 130.49,103.019C131.154,102.131 132.264,101.357 132.819,101.245C133.375,101.136 134.706,99.802 135.591,100.027C136.481,100.247 135.259,101.357 135.148,102.021C135.04,102.685 135.148,104.575 135.591,104.685C136.037,104.794 135.816,103.352 136.369,102.355C136.924,101.357 138.032,100.799 138.589,100.799C139.142,100.799 139.587,103.132 140.363,102.466C141.139,101.8 142.692,101.91 143.026,102.576C143.358,103.242 143.691,103.574 143.691,103.574C143.691,103.574 144.247,103.132 144.247,102.576C144.247,102.021 146.021,101.464 147.132,102.131C148.241,102.797 147.798,103.019 148.35,103.132C148.906,103.242 149.459,101.689 149.793,101.576C150.125,101.464 149.793,103.352 149.017,104.351C148.241,105.353 149.681,105.019 149.681,105.019L150.013,105.353C150.347,105.683 151.457,105.019 151.901,105.683C152.347,106.349 153.124,106.57 153.788,107.793C154.453,109.011 155.453,108.677 156.78,108.457C158.113,108.234 159.779,109.123 161.108,110.566C162.439,112.007 162.22,113.117 163.105,113.117C163.994,113.117 164.213,114.336 164.213,114.779C164.213,115.222 162.22,116.224 161.108,116.445C159.998,116.668 159.998,117.779 161.774,117.445C163.549,117.111 162.773,116.445 163.881,116.113C164.992,115.779 166.102,116.554 165.104,117.886C164.103,119.216 162.107,119.328 163.881,119.548C165.657,119.773 164.66,119.328 165.657,117.998C166.655,116.668 166.544,117.111 167.213,117.111C167.877,117.111 169.316,117.445 169.873,117.886C170.431,118.332 171.868,118.996 172.758,119.548C173.644,120.105 174.755,119.882 175.419,119.66C176.083,119.441 177.972,120.326 178.637,121.214C179.301,122.103 180.968,122.214 181.743,122.546C182.519,122.879 183.741,124.209 183.85,125.32C183.962,126.427 182.631,128.76 182.519,129.314C182.41,129.868 180.636,131.865 178.971,133.197C177.306,134.527 178.303,136.082 178.416,136.746C178.525,137.412 177.306,139.849 177.64,140.406C177.972,140.961 177.193,142.181 176.529,142.959C175.864,143.736 175.419,145.175 174.977,145.839C174.534,146.507 173.09,146.287 171.759,146.621C170.431,146.951 169.76,147.285 169.76,147.285C169.76,147.285 167.431,148.396 166.102,149.281C164.772,150.17 166.544,151.724 165.878,152.943C165.213,154.166 164.547,154.054 163.881,155.494C163.216,156.937 162.886,155.72 162.327,156.05C161.774,156.384 161.442,157.269 161.33,158.158C161.221,159.046 160.112,159.933 158.67,161.265C157.227,162.595 156.337,162.373 154.785,161.931C153.232,161.486 153.456,157.713 153.232,158.267C153.011,158.822 153.124,160.82 153.345,161.156C153.563,161.486 154.232,162.707 154.785,163.039C155.34,163.373 155.228,163.923 154.785,164.48C154.342,165.035 153.124,167.035 152.677,167.144C152.235,167.254 148.796,167.699 148.13,167.367C147.464,167.035 147.132,168.142 147.241,168.81C147.352,169.476 147.907,170.25 146.688,170.029C145.465,169.808 143.802,169.031 143.802,169.582C143.802,170.142 144.134,171.361 144.802,171.361C145.465,171.361 146.133,170.916 145.799,171.693C145.465,172.47 144.581,173.136 144.134,173.47C143.691,173.802 143.136,174.908 142.026,175.685C140.917,176.464 140.917,176.906 141.139,177.24C141.363,177.572 143.026,177.351 143.358,177.572C143.691,177.795 143.026,179.349 142.582,179.681C142.139,180.013 140.252,181.566 139.476,182.011C138.698,182.455 138.698,183.785 138.921,184.451C139.142,185.117 140.917,186.783 141.914,187.113C142.915,187.447 145.023,187.334 144.802,187.668C144.581,188 142.139,188.334 141.805,188.445C141.475,188.554 139.697,189 138.809,189C137.923,189 136.258,188.111 135.924,188.111C135.591,188.111 136.149,187.668 137.258,186.783C138.366,185.892 136.813,184.894 136.592,186.117C136.369,187.334 135.924,187.668 135.372,187.668C134.814,187.668 134.151,186.888 133.817,186.556C133.483,186.226 132.043,185.892 132.264,184.56C132.485,183.228 131.599,183.343 130.933,182.787C130.267,182.232 131.822,181.791 131.599,181.232C131.375,180.679 130.378,181.011 130.267,180.234C130.157,179.459 131.154,178.349 131.267,178.015C131.375,177.683 130.599,177.019 130.49,176.464C130.378,175.908 130.933,175.353 131.709,174.468C132.485,173.578 133.039,172.47 133.039,172.136C133.039,171.804 132.485,170.582 132.485,169.697C132.485,168.81 133.039,168.476 133.264,167.254C133.483,166.037 132.485,166.48 132.485,165.48C132.485,164.48 133.596,164.814 133.375,163.818C133.151,162.818 133.929,162.15 134.261,161.486C134.593,160.82 134.927,159.711 135.372,158.933C135.816,158.158 134.927,156.384 134.927,156.05C134.927,155.72 136.369,155.275 135.703,154.607C135.04,153.943 135.924,153.386 136.592,152.83C137.258,152.279 136.481,150.724 136.813,148.73C137.147,146.732 137.479,143.291 137.479,142.959C137.479,142.627 137.59,141.293 137.035,140.406C136.481,139.517 135.816,138.853 135.04,138.521C134.261,138.187 133.264,137.187 132.707,137.08C132.154,136.968 129.489,135.97 129.489,134.418C129.489,132.861 127.606,131.64 127.383,130.534C127.16,129.426 125.499,126.984 125.386,125.875C125.275,124.767 122.945,124.433 122.613,123.211C122.281,121.99 123.723,121.103 123.942,120.326C124.166,119.548 123.166,117.886 123.057,117.332C122.945,116.777 124.72,115.222 125.386,114.892C126.05,114.558 126.609,113.117 127.047,113.117C127.494,113.117 127.383,111.894 127.828,110.673C128.27,109.455 127.606,107.793 127.272,107.568C126.94,107.346 126.609,105.904 126.05,105.463C125.499,105.019 124.389,105.238 124.389,105.238C124.389,105.238 124.61,106.236 123.61,106.795C122.613,107.346 122.39,106.681 122.058,106.349C121.726,106.017 120.503,105.904 119.952,105.353C119.395,104.794 118.508,104.019 117.84,103.688C117.177,103.352 116.177,103.019 116.29,101.689C116.4,100.359 114.846,99.582 114.401,99.361C113.959,99.135 113.07,98.584 112.517,98.915C111.962,99.248 110.964,98.253 110.186,98.362C109.41,98.471 107.857,97.03 107.302,96.474C106.749,95.919 106.304,95.141 105.307,95.141C104.305,95.141 104.197,95.474 103.529,96.252C102.865,97.03 101.866,95.698 101.534,95.365C101.2,95.034 100.313,94.921 99.092,94.921C97.871,94.921 96.984,93.259 96.542,93.037C96.097,92.814 92.992,91.371 92.214,90.928C91.438,90.483 90.659,88.818 90.991,88.378C91.325,87.932 90.44,86.49 90.44,86.49C90.44,86.49 88.884,84.714 88.33,84.714C87.777,84.714 86.002,81.609 85.002,80.722C84.004,79.835 81.675,77.835 81.229,76.837C80.787,75.839 80.674,74.286 79.568,75.064C78.458,75.839 79.343,76.617 80.453,77.502C81.563,78.391 81.342,79.279 82.894,80.499C84.447,81.722 83.783,82.94 84.447,83.493C85.114,84.05 87.443,85.38 86.446,86.268C85.446,87.155 84.447,85.158 84.004,85.047C83.562,84.936 82.561,84.714 82.673,84.05C82.786,83.385 81.786,82.827 81.008,81.83C80.231,80.833 79.899,81.387 78.904,81.387C77.902,81.387 78.792,80.166 79.343,79.613C79.899,79.057 78.792,78.28 78.124,78.06C77.46,77.835 76.571,75.287 75.684,73.732C74.793,72.177 74.13,71.404 73.132,71.511C72.135,71.623 71.69,70.406 71.024,69.961C70.359,69.516 69.359,67.408 68.251,66.299C67.143,65.189 66.142,63.083 66.254,61.861C66.363,60.64 66.696,57.535 66.696,56.759C66.696,55.982 66.142,54.096 66.142,53.764C66.142,53.431 65.586,52.875 65.144,52.766C64.701,52.654 63.479,51.101 62.481,51.101C61.483,51.101 60.818,49.992 61.15,49.215C61.483,48.44 60.265,47.109 59.708,47.109C59.154,47.109 58.266,45.664 57.932,44.889C57.6,44.11 56.713,44.11 56.935,44.553C57.156,44.999 56.824,45.775 57.377,45.999C57.932,46.218 58.378,47.993 57.932,48.214C57.489,48.44 56.49,47.549 55.382,46.997C54.272,46.441 54.716,44.221 54.716,43.666C54.716,43.111 53.162,42.557 52.496,42.557C51.83,42.557 51.167,42.669 51.056,41.227C50.943,39.783 48.944,39.007 48.278,39.007C47.615,39.007 44.063,37.565 42.953,37.565C41.847,37.565 39.96,36.565 39.293,37.01C38.629,37.453 37.408,36.233 36.743,36.233C36.079,36.233 36.079,36.677 34.856,37.453C33.635,38.23 33.193,37.786 32.527,38.34C31.863,38.896 30.198,39.451 30.753,38.119C31.305,36.788 31.305,36.565 30.419,36.899C29.531,37.231 29.31,38.119 29.31,38.675C29.31,39.23 27.757,40.115 27.757,40.115C27.757,40.115 29.197,40.228 29.756,40.115C30.307,40.007 29.864,41.338 29.31,41.67C28.758,42.003 27.978,42.889 27.089,42.669C26.204,42.445 26.093,41.67 25.54,41.558C24.981,41.446 23.765,42.335 21.768,43.333C19.769,44.334 20.103,43.555 19.326,43.889C18.55,44.221 15.774,45.221 14.777,45.331C13.779,45.44 13.999,44.11 14.556,44.11C15.109,44.11 17.218,43.111 17.772,42.779C18.327,42.445 20.768,41.558 21.432,41.227C22.099,40.893 23.208,40.339 22.765,39.674C22.322,39.007 20.878,40.007 20.878,40.007C20.878,40.007 19.769,39.007 19.439,38.785C19.105,38.564 18.437,39.674 18.437,39.674C18.437,39.674 16.997,39.451 17.329,38.23C17.661,37.01 16.551,37.01 16.331,37.565C16.106,38.119 14.224,39.007 14.109,38.453C13.999,37.898 12.335,36.788 11.893,35.9C11.446,35.014 12.335,34.902 13.333,34.125C14.331,33.349 15.774,33.128 16.997,33.24C18.216,33.349 18.992,31.907 18.55,31.795C18.104,31.685 17.329,31.572 16.663,32.127C15.996,32.685 14.331,32.573 14.331,32.573C14.331,32.573 11.893,32.573 10.894,31.907C9.896,31.24 9.341,30.242 9.341,30.242C9.341,30.242 11.338,29.465 12.891,29.357L14.109,28.8Z" style="fill:rgb(216,216,216);fill-opacity:0.47;stroke:rgb(181,181,181);stroke-width:0.24px;"/>
        <path d="M119.727,34.422C119.427,34.753 121.058,35.234 121.354,34.791C121.651,34.35 120.466,33.606 119.727,34.422Z" style="fill:rgb(216,216,216);fill-opacity:0.47;stroke:rgb(181,181,181);stroke-width:0.24px;"/>
        <path d="M124.019,35.087C122.839,35.424 123.942,36.269 124.685,35.974C125.422,35.68 125.052,34.791 124.019,35.087Z" style="fill:rgb(216,216,216);fill-opacity:0.47;stroke:rgb(181,181,181);stroke-width:0.24px;"/>
        <path d="M68.842,17.044C68.692,17.492 69.505,17.483 70.466,17.483C71.43,17.483 72.984,17.483 73.428,17.263C73.871,17.044 76.091,16.523 76.018,17.189C75.941,17.856 76.903,18.889 77.419,18.741C77.94,18.593 78.975,17.633 79.491,18.003C80.01,18.373 80.085,19.26 80.603,19.481C81.12,19.702 82.525,19.702 83.19,19.481C83.855,19.26 85.707,19.26 86.521,19.406C87.333,19.557 89.699,20 89.922,19.557C90.144,19.113 90.808,19.038 90.882,18.593C90.956,18.149 91.325,16.744 91.325,16.744C91.325,16.744 90.882,15.932 90.144,16.302C89.405,16.67 89.18,16.894 88.516,16.744C87.852,16.597 87.852,15.412 86.667,15.636C85.484,15.857 85.261,16.523 84.893,16.818C84.522,17.116 83.708,17.335 83.416,17.189C83.119,17.044 81.415,16.079 81.415,16.079C81.415,16.079 77.865,15.932 77.719,15.488C77.569,15.045 76.98,14.306 75.351,14.455C73.723,14.601 70.912,15.564 70.466,15.564C70.027,15.564 70.987,16.45 70.395,16.45C69.802,16.45 69.065,16.376 68.842,17.044Z" style="fill:rgb(216,216,216);fill-opacity:0.47;stroke:rgb(181,181,181);stroke-width:0.24px;"/>
        <path d="M81.415,14.009C80.56,14.294 80.749,15.119 81.342,15.119C81.932,15.119 83.416,14.601 83.855,14.97C84.301,15.341 85.411,15.045 85.334,14.674C85.261,14.306 85.778,12.823 84.893,12.75C84.004,12.677 82.748,13.565 81.415,14.009Z" style="fill:rgb(216,216,216);fill-opacity:0.47;stroke:rgb(181,181,181);stroke-width:0.24px;"/>
        <path d="M91.4,13.047C91.288,13.574 91.991,14.009 92.879,14.009C93.77,14.009 95.69,13.565 95.837,13.932C95.985,14.306 95.766,14.601 96.799,14.746C97.835,14.896 98.278,15.045 98.871,15.045C99.463,15.045 99.238,14.081 98.723,13.417C98.203,12.75 98.353,12.827 97.022,12.455C95.69,12.086 94.357,12.086 93.472,12.158C92.582,12.234 91.621,12.011 91.4,13.047Z" style="fill:rgb(216,216,216);fill-opacity:0.47;stroke:rgb(181,181,181);stroke-width:0.24px;"/>
        <path d="M92.879,16.45C92.321,16.939 92.879,18.446 92.656,18.593C92.435,18.741 92.731,19.406 93.324,19.26C93.917,19.113 94.209,17.708 94.655,17.708C95.1,17.708 97.393,17.189 97.761,18.003C98.132,18.814 98.132,18.446 99.167,18.521C100.201,18.593 101.016,17.487 101.091,17.116C101.163,16.744 100.572,16.005 99.167,16.153C97.761,16.302 93.472,15.932 92.879,16.45Z" style="fill:rgb(216,216,216);fill-opacity:0.47;stroke:rgb(181,181,181);stroke-width:0.24px;"/>
        <path d="M95.617,20.368C95.104,20.697 95.394,21.775 96.208,21.847C97.022,21.923 98.428,21.33 98.574,21.775C98.723,22.219 99.238,24.216 100.572,23.55C101.903,22.884 101.83,22.291 102.202,22.219C102.569,22.143 102.125,20.516 101.534,20.146C100.941,19.777 99.017,20 98.502,20.223C97.982,20.444 96.429,19.852 95.617,20.368Z" style="fill:rgb(216,216,216);fill-opacity:0.47;stroke:rgb(181,181,181);stroke-width:0.24px;"/>
        <path d="M103.976,21.037C104.062,21.239 104.641,21.626 105.603,21.479C106.563,21.33 107.966,21.182 108.631,21.11C109.301,21.037 109.447,19.924 108.708,19.852C107.966,19.777 107.377,19.113 106.713,19.334C106.045,19.557 103.75,20.516 103.976,21.037Z" style="fill:rgb(216,216,216);fill-opacity:0.47;stroke:rgb(181,181,181);stroke-width:0.24px;"/>
        <path d="M103.75,17.927C103.428,18.706 106.713,19.113 106.342,18.225C105.971,17.335 104.122,17.044 103.75,17.927Z" style="fill:rgb(216,216,216);fill-opacity:0.47;stroke:rgb(181,181,181);stroke-width:0.24px;"/>
        <path d="M104.343,14.155C103.407,13.93 101.83,13.641 101.83,13.417C101.83,13.195 101.384,14.455 102.202,14.822C103.015,15.191 104.343,15.857 105.307,16.23C106.267,16.597 108.114,16.67 108.708,17.411C109.301,18.149 111.296,18.741 111.296,18.741L113.667,18.965C113.667,18.965 115.292,18.593 116.991,18.741C118.692,18.889 121.207,19.113 122.613,19.038C124.019,18.965 124.24,18.521 124.389,18.225C124.535,17.927 121.801,17.335 121.133,17.411C120.466,17.483 116.693,17.483 115.586,17.411C114.476,17.335 113.07,17.335 112.181,17.411C111.296,17.483 110.632,16.82 109.965,16.45C109.301,16.079 107.821,14.896 106.935,14.746C106.045,14.601 106.194,14.601 104.343,14.155Z" style="fill:rgb(216,216,216);fill-opacity:0.47;stroke:rgb(181,181,181);stroke-width:0.24px;"/>
        <path d="M199.163,29.54C198.865,30.034 198.276,30.058 198.865,31.093C199.459,32.127 199.902,32.719 200.419,32.646C200.937,32.573 202.712,32.498 202.936,33.091C203.157,33.683 203.75,34.201 205.004,33.829C206.262,33.46 207.295,33.24 207.591,32.795C207.89,32.351 209.889,32.278 209.889,32.278C209.889,32.278 211.516,31.019 210.922,30.503C210.328,29.984 208.927,29.613 208.257,29.54C207.591,29.465 206.926,30.058 205.449,30.058C203.969,30.058 203.007,30.649 202.415,30.058C201.826,29.465 199.382,29.171 199.163,29.54Z" style="fill:rgb(216,216,216);fill-opacity:0.47;stroke:rgb(181,181,181);stroke-width:0.24px;"/>
        <path d="M134.151,14.895C135.04,15.488 135.557,15.119 136.665,15.341C137.773,15.559 138.662,17.189 139.255,17.411C139.846,17.633 140.658,17.411 141.029,16.966C141.398,16.523 141.914,14.97 141.914,14.97C141.914,14.97 141.914,16.45 142.805,16.744C143.691,17.044 145.91,16.523 146.504,16.597C147.093,16.67 150.57,17.116 151.532,17.557C152.494,18.003 154.858,18.299 155.526,19.26C156.189,20.22 156.266,23.548 156.634,23.919C157.005,24.289 158.258,22.734 158.558,22.368C158.854,21.996 160.407,22.219 160.924,22.734C161.442,23.253 162.623,24.511 162.552,25.03C162.477,25.545 162.256,26.359 161.81,26.062C161.371,25.769 160.628,25.842 160.924,25.249C161.221,24.657 161.367,23.402 160.776,23.402L159.668,23.402C159.668,23.402 158.558,23.105 157.819,24.216C157.08,25.325 157.669,26.435 158.188,26.435C158.704,26.435 159.889,26.435 159.889,26.728C159.889,27.026 158.633,27.914 158.704,28.431C158.781,28.95 159.739,30.723 160.038,31.093C160.332,31.463 161.886,31.833 162.327,31.907C162.773,31.981 161.295,32.053 161.661,32.573C162.035,33.091 162.623,34.345 163.437,34.642C164.251,34.941 166.544,36.269 166.838,36.862C167.135,37.453 168.911,36.419 169.284,36.344C169.651,36.272 169.576,37.898 170.613,37.971C171.646,38.044 172.018,37.824 172.907,37.159C173.792,36.494 173.57,35.606 173.644,34.941C173.72,34.274 173.644,33.757 174.605,33.977C175.567,34.196 176.083,33.829 176.012,33.091C175.941,32.351 175.127,31.463 176.676,31.24C178.232,31.019 179.046,30.058 180.008,30.058C180.968,30.058 183.629,30.427 183.925,30.058C184.221,29.69 185.476,27.987 186.292,27.914C187.107,27.838 189.25,27.691 191.174,27.395C193.099,27.1 195.168,25.991 195.836,26.062C196.5,26.136 198.127,26.136 197.61,25.693C197.093,25.249 196.352,24.216 195.242,24.216C194.132,24.216 195.168,22.588 195.461,22.588C195.759,22.588 197.239,22.809 197.166,23.548C197.093,24.289 197.61,25.249 199.089,24.958C200.567,24.657 200.342,23.548 200.049,23.253C199.755,22.957 199.534,22.216 199.238,21.701C198.94,21.182 199.013,20.516 200.567,20.368C202.122,20.22 204.267,20.96 204.188,19.777C204.117,18.593 204.188,17.335 204.634,16.67C205.081,16.005 206.041,15.559 205.523,15.341C205.004,15.119 204.338,15.636 203.821,14.526C203.305,13.417 204.267,12.602 204.856,12.158C205.449,11.717 208.553,8.83 210.256,8.387C211.956,7.943 213.14,6.241 211.956,5.872C210.774,5.503 208.406,4.837 206.855,6.019C205.298,7.206 204.416,8.312 202.639,7.943C200.866,7.574 201.084,8.09 201.012,6.019C200.937,3.949 199.013,0.25 197.462,0.473L195.908,0.696C195.908,0.696 168.691,0.55 167.8,1.435C166.916,2.32 166.102,4.541 165.29,3.949C164.476,3.359 164.326,1.88 163.292,2.469C162.256,3.061 163.216,4.541 162.327,5.576C161.442,6.612 158.927,6.463 158.188,6.094C157.448,5.727 156.709,5.429 153.75,5.576C150.791,5.727 147.538,6.612 148.203,7.5C148.867,8.387 146.872,8.904 146.354,8.463C145.836,8.018 143.47,8.978 143.618,9.865C143.767,10.754 143.247,11.79 141.991,11.567C140.732,11.344 139.846,12.086 139.772,12.823C139.697,13.565 136.886,14.081 136.665,14.081C136.442,14.081 132.819,14.009 134.151,14.895Z" style="fill:rgb(216,216,216);fill-opacity:0.47;stroke:rgb(181,181,181);stroke-width:0.24px;"/>
        <path d="M118.951,86.712C118.84,87.82 119.952,87.488 121.283,87.488C122.613,87.488 124.943,87.268 125.386,87.82C125.831,88.378 127.828,89.263 128.381,89.709C128.936,90.15 130.711,90.26 130.82,89.817C130.933,89.375 129.602,88.153 128.823,88.265C128.048,88.378 126.384,87.488 125.499,86.712C124.61,85.935 122.945,85.935 122.281,85.935C121.615,85.935 118.951,86.712 118.951,86.712Z" style="fill:rgb(216,216,216);fill-opacity:0.47;stroke:rgb(181,181,181);stroke-width:0.24px;"/>
        <path d="M127.047,83.606C126.035,83.717 126.275,84.936 127.494,84.714C128.714,84.492 128.048,83.493 127.047,83.606Z" style="fill:rgb(216,216,216);fill-opacity:0.47;stroke:rgb(181,181,181);stroke-width:0.24px;"/>
        <path d="M127.606,92.795C126.588,92.978 126.828,94.958 128.048,94.597C129.268,94.237 128.604,92.612 127.606,92.795Z" style="fill:rgb(216,216,216);fill-opacity:0.47;stroke:rgb(181,181,181);stroke-width:0.24px;"/>
        <path d="M142.248,91.573C141.235,91.756 141.475,93.739 142.692,93.374C143.917,93.015 143.247,91.391 142.248,91.573Z" style="fill:rgb(216,216,216);fill-opacity:0.47;stroke:rgb(181,181,181);stroke-width:0.24px;"/>
        <path d="M132.154,92.038C132.154,92.038 133.375,92.258 134.151,92.258C134.927,92.258 135.372,92.704 136.037,93.037C136.701,93.37 137.923,92.593 138.366,92.593C138.809,92.593 139.364,93.923 139.476,92.481C139.587,91.038 138.145,90.373 137.258,90.15C136.369,89.928 135.372,90.15 134.706,90.26C134.038,90.373 132.154,92.038 132.154,92.038Z" style="fill:rgb(216,216,216);fill-opacity:0.47;stroke:rgb(181,181,181);stroke-width:0.24px;"/>
        <path d="M273.605,115.89C273.307,115.41 271.387,115.556 271.051,116.113C270.723,116.668 270.387,119.216 271.387,119.441C272.382,119.66 274.159,116.777 273.605,115.89ZM225.123,70.294C225.567,70.073 227.339,69.516 228.34,69.073C229.34,68.628 232.556,67.518 232.999,67.518C233.445,67.518 238.988,67.631 239.766,67.296C240.544,66.963 242.543,66.411 243.428,68.851C244.313,71.291 243.428,70.406 242.543,70.847C241.651,71.291 242.875,72.289 243.316,72.289C243.758,72.289 245.311,73.732 246.087,73.732C246.866,73.732 248.753,74.509 248.753,74.509C248.753,74.509 250.636,75.951 251.639,75.951C252.635,75.951 253.416,76.729 254.522,75.619C255.627,74.509 257.071,73.176 258.182,73.399C259.292,73.622 260.514,74.509 261.953,74.509C263.397,74.509 266.061,74.286 266.504,74.841C266.95,75.397 263.509,77.281 263.729,77.727C263.954,78.169 264.396,78.06 265.506,76.729C266.613,75.397 268.28,75.397 269.609,75.064C270.943,74.73 271.61,76.837 271.832,77.502C272.05,78.169 273.05,79.39 273.825,80.833C274.603,82.274 275.377,84.27 276.268,85.825C277.155,87.379 277.709,89.709 278.599,90.706C279.486,91.705 280.262,93.37 280.815,94.702C281.373,96.031 282.704,97.361 283.146,97.473C283.592,97.584 285.475,100.135 285.587,100.799C285.696,101.464 284.921,102.91 286.692,103.019C288.471,103.132 290.022,102.242 290.58,102.021C291.134,101.8 295.46,100.135 296.015,100.799C296.573,101.464 295.239,104.351 295.128,105.129C295.016,105.904 291.798,109.677 291.686,110.673C291.579,111.675 289.69,113.451 288.471,113.67C287.249,113.89 284.697,117 283.81,117.998C282.921,118.996 281.479,121.214 280.815,121.435C280.15,121.66 279.928,123.988 280.262,124.433C280.594,124.875 280.371,127.539 281.373,128.425C282.368,129.314 282.704,129.976 282.257,130.756C281.813,131.529 282.48,133.306 282.257,134.75C282.036,136.189 280.815,138.078 280.371,138.521C279.928,138.966 277.155,139.744 276.268,140.849C275.377,141.961 274.603,142.959 274.824,143.513C275.045,144.07 275.934,146.841 275.82,147.507C275.713,148.175 273.605,149.06 272.716,149.502C271.832,149.951 272.276,150.834 272.495,151.724C272.716,152.609 270.943,154.054 270.165,154.828C269.386,155.605 267.278,158.267 265.836,159.265C264.396,160.265 262.731,161.041 261.288,160.931C259.851,160.82 257.071,160.931 256.519,161.486C255.961,162.043 255.189,161.931 254.077,161.377C252.969,160.82 252.856,160.045 252.751,158.822C252.635,157.601 252.303,156.824 252.303,156.824C252.303,156.824 251.971,154.941 250.968,154.054C249.972,153.164 249.638,152.168 249.087,151.498C248.533,150.834 248.866,149.394 248.753,148.175C248.641,146.951 247.977,145.07 247.426,144.291C246.866,143.513 245.757,141.406 245.311,140.629C244.87,139.849 244.313,138.3 244.425,136.082C244.539,133.863 246.087,132.644 246.978,131.974C247.869,131.31 247.088,130.424 246.312,129.094C245.536,127.761 246.424,125.539 245.757,124.767C245.091,123.988 242.875,119.882 241.651,119.216C240.428,118.55 240.323,118.332 240.989,116.777C241.651,115.222 240.989,113.67 242.096,112.673C243.207,111.675 242.652,111.009 241.433,110.343C240.21,109.677 240.657,109.345 239.655,110.121C238.654,110.898 237.327,111.341 236.552,110.566C235.774,109.787 235.995,108.566 234.551,107.679C233.111,106.795 231.226,108.011 230.669,108.234C230.116,108.457 228.562,109.455 227.005,109.677C225.457,109.898 224.346,109.564 222.79,109.564C221.241,109.564 219.906,109.677 219.685,110.455C219.465,111.23 219.133,111.675 218.134,110.898C217.134,110.121 215.137,108.343 215.137,108.343C215.137,108.343 212.364,106.13 211.809,104.794C211.254,103.464 210.256,102.576 208.149,101.576C206.041,100.578 207.26,99.469 207.039,98.362C206.819,97.252 205.708,96.807 206.262,96.696C206.819,96.586 206.708,95.809 207.923,94.256C209.148,92.704 208.37,91.038 208.149,90.15C207.923,89.263 206.819,87.932 207.923,86.49C209.034,85.047 210.144,81.942 211.029,81.055C211.921,80.166 214.142,78.944 215.357,78.391C216.58,77.835 215.803,76.396 216.467,74.73C217.134,73.066 218.134,72.289 218.465,72.289C218.799,72.289 220.03,71.137 221.35,70.406C222.347,69.848 224.678,70.514 225.123,70.294Z" style="fill:rgb(216,216,216);fill-opacity:0.47;stroke:rgb(181,181,181);stroke-width:0.24px;"/>
        <path d="M293.793,132.308C292.406,131.912 292.243,133.752 291.134,134.972C290.022,136.189 288.803,137.187 288.361,137.08C287.913,136.968 285.475,137.855 286.251,139.517C287.026,141.181 286.918,142.849 286.139,143.625C285.363,144.402 286.804,146.621 286.587,147.839C286.36,149.06 286.918,149.838 288.471,149.838C290.022,149.838 290.58,149.281 291.245,147.839C291.909,146.398 292.019,144.957 292.685,143.736C293.351,142.515 293.908,139.963 294.24,139.298C294.572,138.632 295.239,136.523 295.128,135.304C295.016,134.084 294.572,132.531 293.793,132.308Z" style="fill:rgb(216,216,216);fill-opacity:0.47;stroke:rgb(181,181,181);stroke-width:0.24px;"/>
        <path d="M334.064,103.796C333.346,104.115 332.733,107.9 334.064,108.343C335.4,108.791 336.176,106.57 335.733,106.017C335.287,105.463 335.066,103.352 334.064,103.796Z" style="fill:rgb(216,216,216);fill-opacity:0.47;stroke:rgb(181,181,181);stroke-width:0.24px;"/>
        <path d="M240.657,62.415C239.61,62.415 239.1,64.083 239.766,64.635C240.428,65.189 241.099,65.081 241.651,64.302C242.211,63.525 241.209,62.415 240.657,62.415Z" style="fill:rgb(216,216,216);fill-opacity:0.47;stroke:rgb(181,181,181);stroke-width:0.24px;"/>
        <path d="M232.224,64.19C231.956,64.611 233.111,64.748 233.333,64.302C233.555,63.858 232.999,62.971 232.224,64.19Z" style="fill:rgb(216,216,216);fill-opacity:0.47;stroke:rgb(181,181,181);stroke-width:0.24px;"/>
        <path d="M245.423,66.078C245.02,66.318 246.087,67.076 246.644,67.296C247.205,67.518 247.643,68.186 248.089,68.295C248.533,68.407 249.972,68.295 249.53,67.186C249.087,66.078 248.089,66.078 247.756,66.078C247.426,66.078 245.982,65.745 245.423,66.078Z" style="fill:rgb(216,216,216);fill-opacity:0.47;stroke:rgb(181,181,181);stroke-width:0.24px;"/>
        <path d="M218.909,43.666C217.903,43.834 217.798,44.889 217.134,44.889C216.467,44.889 215.691,45.11 215.916,45.885C216.135,46.663 216.58,47.217 215.916,47.549C215.25,47.881 216.024,49.215 216.912,49.325C217.798,49.436 218.799,48.771 219.574,48.44C220.35,48.106 221.46,47.441 221.46,46.441C221.46,45.44 221.241,44.553 220.794,44.11C220.35,43.666 219.574,43.555 218.909,43.666Z" style="fill:rgb(216,216,216);fill-opacity:0.47;stroke:rgb(181,181,181);stroke-width:0.24px;"/>
        <path d="M220.131,40.339C219.233,40.639 219.574,41.779 220.018,42.335C220.462,42.889 221.241,44.11 222.347,44.553C223.458,44.999 225.789,45.44 224.903,45.885C224.012,46.331 222.458,47.549 222.239,48.214C222.013,48.88 224.125,49.546 224.125,49.546C224.125,49.546 223.458,50.324 224.012,50.544C224.568,50.767 224.903,49.769 225.789,49.769C226.673,49.769 228.45,50.324 229.34,50.324C230.227,50.324 231.667,49.103 231.558,48.326C231.446,47.549 230.335,46.331 229.34,45.885C228.34,45.44 227.23,43.444 226.567,43.001C225.899,42.557 227.23,41.446 226.454,40.673C225.677,39.895 225.123,40.007 224.234,39.451C223.349,38.896 222.571,39.563 222.013,40.228C221.46,40.893 220.794,40.115 220.131,40.339Z" style="fill:rgb(216,216,216);fill-opacity:0.47;stroke:rgb(181,181,181);stroke-width:0.24px;"/>
        <path d="M290.913,55.315C289.569,56.213 289.135,57.425 289.69,58.201C290.248,58.978 291.798,61.418 292.575,61.64C293.351,61.861 296.125,62.305 295.016,63.305C293.908,64.302 293.686,64.635 292.685,64.524C291.686,64.415 292.13,67.186 292.909,67.408C293.686,67.631 296.015,68.407 296.79,68.518C297.568,68.628 300.12,68.295 300.007,67.631C299.897,66.963 299.453,64.302 298.568,63.638C297.675,62.971 299.789,62.305 299.231,61.75C298.674,61.195 297.902,61.418 297.456,60.753C297.011,60.087 296.79,59.422 296.125,58.978C295.46,58.532 294.907,59.422 295.016,58.201C295.128,56.98 296.679,56.203 297.345,56.869C298.01,57.535 300.007,57.203 300.454,56.869C300.898,56.536 299.563,55.537 299.231,54.87C298.899,54.205 296.679,53.652 296.347,53.873C296.015,54.096 295.128,54.761 294.24,55.315C293.351,55.87 291.579,54.87 290.913,55.315ZM265.506,63.083C265.728,63.525 266.837,62.415 267.723,62.415C268.608,62.415 270.609,62.75 271.164,61.972C271.717,61.195 273.491,61.085 274.936,61.306C276.38,61.528 277.599,62.527 278.599,62.638C279.598,62.75 282.257,62.527 283.146,62.305C284.031,62.082 283.81,60.528 282.368,59.754C280.928,58.978 279.706,57.758 278.375,57.314C277.042,56.869 276.598,56.425 277.376,56.203C278.155,55.982 279.15,55.094 278.042,55.094C276.932,55.094 275.934,55.427 275.82,55.982C275.713,56.536 275.045,57.203 274.603,57.425C274.159,57.648 273.05,58.532 272.716,57.867C272.382,57.203 271.164,55.204 270.609,55.094C270.055,54.983 269.168,55.094 268.5,56.203C267.835,57.314 267.059,58.423 266.391,58.865C265.728,59.31 264.84,60.64 265.506,60.863C266.17,61.085 265.506,63.083 265.506,63.083ZM269.279,36.233C268.901,37.279 271.832,38.119 272.382,37.342C272.94,36.565 269.831,34.682 269.279,36.233ZM227.452,55.759C227.339,54.761 225.123,53.873 223.68,53.652C222.239,53.431 222.458,52.766 224.012,52.654C225.567,52.541 225.457,51.989 226.784,51.767C228.118,51.545 229.451,51.211 230.448,51.101C231.446,50.989 231.446,50.102 231.446,49.436C231.446,48.771 234.219,48.547 234.219,48.547C234.219,48.547 235.774,47.109 236.663,46.441C237.547,45.775 239.1,45.885 240.323,46.218C241.542,46.55 240.21,45.44 239.766,44.889C239.322,44.334 239.655,43.111 239.993,42.445C240.323,41.779 242.322,41.446 242.875,41.67C243.428,41.89 242.875,42.889 242.984,43.778C243.096,44.667 243.983,45.221 243.983,45.221L244.87,45.11L246.312,45.11C247.756,45.11 247.31,45.999 248.421,45.664C249.53,45.331 250.861,44.889 251.307,44.667C251.747,44.443 252.969,44.443 254.632,44.999C256.297,45.552 255.411,43.999 255.743,43.111C256.075,42.223 256.738,40.673 257.847,40.78C258.958,40.893 259.851,41.558 260.736,41.005C261.621,40.449 259.073,39.674 259.073,39.341C259.073,39.007 261.178,39.007 263.065,38.896C264.952,38.785 266.061,38.896 266.95,38.675C267.835,38.453 266.285,36.899 265.949,36.899C265.619,36.899 263.397,37.121 262.285,37.01C261.178,36.899 259.958,37.675 258.958,37.898C257.959,38.119 257.739,36.565 257.183,35.9C256.627,35.234 256.406,34.017 257.847,33.349C259.292,32.685 261.846,31.24 262.285,30.574C262.731,29.909 260.514,30.022 258.407,30.129C256.297,30.242 258.741,30.797 256.738,32.795C254.747,34.791 253.746,33.46 252.193,34.791C250.636,36.121 251.747,36.233 253.194,36.677C254.632,37.121 253.416,38.453 253.082,38.785C252.751,39.117 251.083,40.339 251.307,41.227C251.529,42.11 250.196,42.669 250.196,42.669C250.196,42.669 246.087,43.555 245.311,43.666C244.539,43.778 244.313,43.111 244.539,42.445C244.759,41.779 243.647,40.228 243.541,39.23C243.428,38.23 241.767,39.674 241.651,40.339C241.542,41.005 239.432,41.114 238.215,40.673C236.993,40.228 236.325,38.564 236.552,38.23C236.773,37.898 235.886,36.233 235.886,35.788C235.886,35.348 238.324,33.572 240.428,33.128C242.543,32.685 245.202,30.129 246.644,29.024C248.089,27.914 248.753,26.582 249.2,26.25C249.638,25.916 257.295,23.919 260.071,23.474C262.84,23.033 268.948,24.031 269.943,24.252C270.943,24.472 271.496,24.804 273.939,25.693C276.38,26.582 278.486,26.582 280.037,26.805C281.591,27.026 282.589,27.468 283.592,27.914C284.588,28.359 283.592,28.692 281.145,29.465C278.706,30.242 277.042,30.022 275.713,29.577C274.379,29.132 273.605,29.132 274.603,29.797C275.598,30.463 275.268,30.797 275.377,31.795C275.488,32.795 277.042,31.907 277.376,31.685C277.709,31.463 277.709,31.019 278.932,31.795C280.15,32.573 280.594,32.127 281.145,32.017C281.702,31.907 281.259,30.687 281.591,30.242C281.923,29.797 283.258,29.797 283.592,29.577C283.924,29.357 284.697,29.024 285.363,28.911C286.026,28.8 285.917,29.909 286.587,30.242C287.249,30.574 286.918,28.8 286.692,28.359C286.472,27.914 286.251,26.694 286.587,26.359C286.918,26.026 289.25,25.804 289.801,26.25C290.356,26.694 288.917,28.024 289.25,28.8C289.583,29.577 290.356,28.359 290.913,27.691C291.466,27.026 292.685,27.691 294.682,27.358C296.679,27.026 296.237,25.916 298.34,26.582C300.454,27.248 299.897,27.248 300.565,26.582C301.232,25.916 302.449,26.694 303.667,26.25C304.888,25.804 304.888,26.25 305.78,26.694C306.665,27.136 307.775,25.804 308.219,25.361C308.662,24.916 310.435,24.916 311.325,25.03C312.215,25.139 313.32,25.693 314.208,25.693C315.095,25.693 316.538,26.359 316.538,26.359C316.538,26.359 318.425,27.026 318.872,26.582C319.311,26.136 318.759,25.582 317.092,24.804C315.429,24.031 316.094,22.701 317.092,22.588C318.093,22.477 317.981,21.923 318.759,21.479C319.534,21.037 320.534,19.371 321.418,19.702C322.307,20.036 323.085,20.702 324.198,21.256C325.301,21.811 324.304,22.588 324.083,23.141C323.864,23.698 324.304,25.804 324.636,26.136C324.972,26.472 324.304,27.691 323.419,28.247C322.532,28.8 321.306,30.022 321.645,30.242C321.971,30.463 324.636,29.244 324.636,29.244C324.636,29.244 326.305,27.248 327.078,26.694C327.854,26.136 328.63,26.136 328.851,26.805C329.075,27.468 330.295,27.691 331.406,27.248C332.517,26.805 331.406,26.472 331.296,25.472C331.182,24.472 329.411,25.03 328.409,25.249C327.41,25.472 326.631,26.472 326.305,26.472C325.965,26.472 325.965,25.804 326.189,24.804C326.414,23.807 325.749,23.253 325.749,22.701C325.749,22.143 326.08,22.143 326.856,21.037C327.634,19.924 327.634,21.811 327.744,22.809C327.854,23.807 328.63,23.366 329.295,23.253C329.961,23.141 329.631,21.811 330.187,21.145C330.74,20.478 331.962,20.368 333.067,21.368C334.177,22.368 334.064,22.033 335.4,22.477C336.731,22.921 336.843,23.033 336.956,24.031C337.063,25.03 337.952,25.139 338.506,24.804C339.058,24.472 338.618,23.141 338.282,22.701C337.952,22.255 335.287,21.479 334.396,20.702C333.513,19.924 334.842,19.924 335.844,19.924C336.843,19.924 338.728,20.036 338.728,20.036C338.728,20.036 340.833,19.591 341.944,18.814C343.054,18.04 343.833,18.04 344.94,17.596C346.046,17.15 347.827,17.15 348.936,17.375C350.042,17.596 350.817,16.931 351.931,16.485C353.04,16.044 354.26,15.709 354.595,15.932C354.927,16.153 357.694,16.818 358.14,16.711C358.584,16.597 359.583,16.266 361.358,15.598C363.133,14.933 362.357,15.045 363.019,14.711C363.688,14.378 364.798,14.267 367.127,15.266C369.457,16.266 367.127,15.266 367.793,15.932C368.457,16.597 368.791,15.82 370.345,15.598C371.9,15.378 372.899,15.598 373.895,15.709C374.894,15.82 377.113,15.82 378.11,16.485C379.112,17.15 377.447,18.593 376.889,19.038C376.334,19.481 377.777,19.814 378.225,19.702C378.664,19.591 382.328,19.702 383.989,19.924C385.658,20.146 386.322,20.924 387.096,20.924C387.875,20.924 389.095,20.592 389.54,20.146C389.984,19.702 392.755,19.481 393.642,19.371C394.53,19.26 396.973,19.371 397.308,19.591C397.64,19.814 397.972,20.924 397.972,21.811C397.972,22.701 398.968,23.474 399.746,23.586C400.524,23.698 401.964,22.255 402.516,22.033C403.073,21.811 403.737,23.033 404.07,22.701C404.402,22.368 407.179,22.809 408.29,22.255C409.396,21.701 410.059,22.255 410.619,22.033C411.169,21.811 412.06,20.592 412.06,20.146C412.06,19.702 412.504,19.371 412.06,18.706C411.614,18.04 410.059,18.482 408.396,18.04C406.735,17.596 408.29,16.931 408.953,16.485C409.619,16.044 410.725,16.485 411.835,16.711C412.944,16.931 412.504,16.376 413.058,16.376C413.615,16.376 415.608,16.931 416.716,16.931C417.825,16.931 418.715,18.149 418.715,18.149C418.715,18.149 415.608,19.038 414.944,19.038C414.279,19.038 414.721,19.924 415.278,19.924C415.832,19.924 416.608,20.258 417.385,20.814C418.161,21.368 421.599,20.814 422.042,20.814C422.488,20.814 423.822,21.368 425.151,22.143C426.48,22.921 427.37,23.253 427.37,23.253C427.37,23.253 429.253,23.253 431.14,23.033C433.025,22.809 435.47,22.809 435.913,23.141C436.355,23.474 437.578,23.807 438.462,24.584C439.346,25.361 440.015,25.03 441.238,24.916C442.458,24.804 443.677,24.584 444.788,24.584C445.898,24.584 449.556,24.472 450.222,25.472C450.885,26.472 451.666,26.25 451.666,26.25C451.666,26.25 452.666,24.472 453.108,24.139C453.554,23.807 454.995,24.364 455.881,24.804C456.768,25.249 461.092,24.804 462.206,25.03C463.314,25.249 464.869,26.359 463.982,27.248C463.093,28.134 464.648,29.69 464.316,30.574C463.982,31.463 463.093,31.572 462.206,31.795C461.317,32.017 463.093,33.128 463.872,33.906C464.648,34.682 463.425,34.902 462.647,34.57C461.873,34.238 459.874,34.682 457.321,35.348C454.769,36.013 453.77,37.342 451.111,37.453C448.448,37.565 449.556,37.342 446.232,37.342C442.903,37.342 443.012,38.23 442.346,39.341C441.68,40.449 442.68,40.228 442.346,41.114C442.014,42.003 441.459,43.001 441.459,43.778C441.459,44.553 439.46,44.667 438.794,45.331C438.128,45.999 437.021,47.661 435.134,48.88C433.25,50.102 431.918,51.989 431.918,51.989C431.918,51.989 432.252,50.102 433.137,48.771C434.024,47.441 432.139,45.552 432.027,44.11C431.918,42.669 432.584,42.223 433.69,40.893C434.8,39.563 437.465,39.117 438.574,38.453C439.685,37.786 444.235,34.682 444.235,34.682C444.235,34.682 443.345,35.234 442.239,35.68C441.124,36.121 439.794,37.01 438.909,37.01C438.016,37.01 438.356,36.121 438.242,35.234C438.128,34.35 436.021,35.014 435.243,35.9C434.468,36.788 433.025,37.342 431.476,38.453C429.921,39.563 430.366,39.451 429.366,39.563C428.365,39.674 426.702,39.007 425.929,38.453C425.151,37.898 424.373,38.896 421.933,39.007C419.494,39.117 416.716,38.785 415.608,38.896C414.5,39.007 411.726,42.223 410.059,42.779C408.396,43.333 406.289,44.334 406.845,45.11C407.401,45.885 408.396,44.443 408.844,44.443C409.287,44.443 408.51,45.999 409.508,45.999C410.505,45.999 411.055,45.44 412.06,45.331C413.058,45.221 413.836,46.107 414.055,47.328C414.279,48.547 413.615,49.546 413.17,51.101C412.726,52.654 412.06,54.205 410.285,55.537C408.51,56.869 405.625,59.31 405.07,59.974C404.514,60.64 402.516,60.087 402.186,59.643C401.856,59.197 400.856,60.64 400.078,60.973C399.301,61.306 398.525,61.972 398.525,62.86C398.525,63.748 396.309,63.748 396.309,64.302C396.309,64.856 397.64,66.411 398.192,67.186C398.745,67.963 398.077,70.406 397.082,70.958C396.082,71.511 395.645,72.177 394.308,71.404C392.979,70.626 394.088,70.18 394.644,68.961C395.199,67.74 394.088,67.076 393.864,66.743C393.642,66.411 392.755,67.408 392.313,67.518C391.869,67.631 391.869,66.519 392.201,65.853C392.534,65.189 391.979,63.748 391.647,63.638C391.315,63.525 389.206,65.301 388.319,65.189C387.426,65.081 388.205,63.083 388.54,62.527C388.875,61.972 387.875,62.415 387.208,62.971C386.542,63.525 385.101,64.748 384.544,64.635C383.989,64.524 382.88,65.521 383.771,66.187C384.657,66.853 384.991,67.408 385.545,67.518C386.096,67.631 387.541,67.296 388.097,67.186C388.649,67.076 389.76,67.963 388.649,68.961C387.541,69.961 385.211,70.073 385.658,70.739C386.096,71.404 387.208,72.4 388.097,73.954C388.983,75.506 388.649,77.17 388.875,78.391C389.095,79.613 385.658,82.163 384.657,82.94C383.657,83.717 382.66,85.603 380.995,86.49C379.33,87.379 375.78,88.153 375.226,87.82C374.669,87.488 373.117,88.378 373.229,89.596C373.338,90.816 374.116,90.706 374.116,91.038C374.116,91.371 373.004,92.704 372.565,93.259C372.121,93.812 370.565,93.259 370.792,91.593C371.013,89.928 372.121,89.263 372.008,88.486C371.9,87.713 370.9,87.268 370.235,87.932C369.569,88.598 367.461,90.483 367.461,90.483C367.461,90.483 368.24,92.481 369.235,93.259C370.235,94.036 370.9,95.141 372.232,96.807C373.561,98.471 372.565,99.914 372.232,101.136C371.9,102.355 370.792,102.355 369.901,102.576C369.012,102.797 368.791,103.132 368.457,103.796C368.126,104.464 366.576,105.238 366.349,104.685C366.131,104.129 364.688,102.797 364.688,102.797C364.688,102.797 363.688,100.799 362.247,99.802C360.806,98.804 360.251,98.362 360.251,99.361C360.251,100.359 359.364,102.242 359.364,102.91C359.364,103.574 357.362,100.911 357.362,99.802C357.362,98.695 357.03,96.807 357.142,95.034C357.256,93.259 354.813,94.921 354.813,94.921C354.813,94.921 353.703,96.807 353.152,96.807C352.595,96.807 352.374,95.254 352.481,93.923C352.595,92.593 351.931,91.371 351.595,90.928C351.261,90.483 349.377,88.711 349.045,87.488C348.713,86.268 348.047,86.712 347.383,87.379C346.714,88.045 346.936,88.045 344.277,88.045C341.612,88.045 341.722,89.709 340.387,90.706C339.058,91.705 337.952,93.59 336.397,94.256C334.842,94.921 334.177,95.586 334.177,96.364C334.177,97.139 334.177,99.135 333.847,100.247C333.513,101.357 333.292,102.91 332.517,104.019C331.737,105.129 331.074,106.902 330.408,106.902C329.744,106.902 329.517,105.353 329.517,104.351C329.517,103.352 327.634,101.024 327.188,100.247C326.744,99.469 325.081,96.031 325.081,96.031C325.081,96.031 323.75,92.371 323.864,91.371C323.97,90.373 323.97,87.6 323.97,87.6C323.97,87.6 322.197,89.375 321.418,89.263C320.642,89.151 319.868,87.932 319.976,86.49C320.086,85.047 318.647,85.158 317.869,84.936C317.092,84.714 316.094,82.719 315.542,82.719C314.981,82.719 314.651,82.719 314.208,83.385C313.766,84.05 311.435,83.938 310.877,83.938C310.321,83.938 306.997,83.826 306,83.493C305.001,83.161 303.891,81.164 303.334,80.944C302.785,80.722 301.12,82.163 300.454,81.942C299.789,81.722 298.453,80.61 297.011,79.945C295.573,79.279 295.128,77.727 294.572,76.729C294.018,75.732 292.13,77.281 292.349,78.391C292.575,79.501 295.016,80.944 295.016,81.722C295.016,82.496 295.46,82.719 296.679,83.717C297.902,84.714 296.902,85.271 297.675,85.491C298.453,85.712 299.563,84.603 300.675,84.05C301.784,83.493 301.67,82.719 302.228,82.719C302.785,82.719 302.667,84.16 303.557,84.27C304.444,84.382 306.775,85.712 307.331,86.603C307.887,87.488 306.775,88.045 306.333,88.818C305.886,89.596 304.559,91.815 303.445,92.704C302.334,93.59 301.12,94.81 299.453,95.141C297.79,95.474 297.568,96.364 296.237,96.474C294.907,96.586 291.245,98.362 290.69,98.695C290.136,99.028 287.138,99.914 286.251,99.582C285.363,99.248 285.031,97.03 284.697,95.365C284.365,93.703 283.924,92.814 283.592,92.149C283.258,91.483 281.259,89.709 280.815,89.375C280.371,89.044 279.264,86.379 279.15,85.271C279.04,84.16 277.821,84.603 277.599,83.385C277.376,82.163 276.154,80.499 275.934,79.721C275.713,78.944 273.491,79.835 272.608,79.945C271.717,80.057 270.055,79.279 270.277,77.502C270.497,75.732 271.387,75.732 272.495,75.732C273.605,75.732 273.161,75.174 274.269,74.064C275.377,72.954 275.713,70.739 275.82,69.296C275.934,67.852 275.045,68.518 274.159,68.74C273.271,68.961 271.938,69.296 271.496,69.183C271.051,69.073 269.279,68.518 268.948,68.851C268.608,69.183 266.725,68.961 266.285,68.407C265.836,67.852 263.62,67.186 263.397,66.743C263.173,66.299 263.397,63.638 262.953,62.971C262.51,62.305 261.512,63.083 260.954,63.525C260.402,63.97 258.851,64.302 259.292,64.635C259.737,64.968 261.178,65.633 261.07,66.519C260.954,67.408 259.958,67.631 259.405,68.073C258.851,68.518 257.739,69.183 257.406,68.628C257.071,68.073 255.961,65.633 255.627,65.189C255.297,64.748 254.298,63.638 253.968,62.638C253.636,61.64 252.414,61.306 251.639,60.528C250.861,59.754 248.641,58.532 247.756,57.648C246.866,56.759 245.311,56.093 245.202,57.203C245.091,58.313 246.756,58.532 247.426,59.643C248.089,60.753 249.53,61.418 250.306,61.75C251.083,62.082 253.194,63.525 253.194,63.525C253.194,63.525 252.303,63.858 251.529,63.748C250.749,63.638 251.417,65.081 251.307,65.853C251.195,66.63 250.415,66.63 250.196,65.745C249.972,64.856 249.305,63.858 248.866,63.525C248.421,63.193 245.536,62.305 245.091,62.082C244.647,61.861 242.762,60.64 242.543,59.643C242.322,58.645 240.657,58.532 240.21,58.756C239.766,58.978 238.102,60.196 237.327,60.196C236.552,60.196 235.33,59.643 234.438,59.53C233.555,59.422 233.445,60.973 233.111,61.861C232.777,62.75 231.335,62.082 230.561,62.86C229.785,63.638 228.45,64.415 228.783,65.081C229.119,65.745 229.671,65.745 228.674,66.299C227.672,66.853 227.118,67.963 226.121,68.073C225.123,68.186 223.793,68.628 223.236,68.295C222.679,67.963 222.239,69.407 221.905,69.739C221.575,70.073 221.016,68.74 220.462,68.186C219.906,67.631 218.465,68.073 218.023,67.963C217.579,67.852 217.134,66.853 216.58,66.411C216.024,65.965 216.135,64.968 216.58,64.635C217.022,64.302 217.464,63.748 217.134,62.75C216.8,61.75 216.58,59.53 217.69,59.091C218.799,58.645 221.46,59.091 222.79,59.091C224.125,59.091 226.405,59.551 226.784,58.865C227.339,57.867 227.562,56.759 227.452,55.759Z" style="fill:rgb(216,216,216);fill-opacity:0.47;stroke:rgb(181,181,181);stroke-width:0.24px;"/>
        <path d="M303.667,23.919C302.85,24.74 301.12,24.472 299.897,23.807C298.674,23.141 297.234,23.033 296.573,22.809C295.905,22.588 296.679,21.256 297.456,20.924C298.234,20.592 300.341,19.591 301.898,18.926C303.445,18.261 303.891,16.931 305.001,16.931C306.111,16.931 311.435,15.82 312.1,16.044C312.768,16.266 315.98,16.485 316.652,15.598C317.315,14.711 319.644,15.266 319.091,16.044C318.536,16.818 316.538,18.593 315.208,18.261C313.876,17.927 310.104,18.04 308.44,18.261C306.775,18.482 305.222,19.481 303.779,20.258C302.334,21.037 302.667,21.923 303.227,22.033C303.779,22.143 304.332,23.253 303.667,23.919Z" style="fill:rgb(216,216,216);fill-opacity:0.47;stroke:rgb(181,181,181);stroke-width:0.24px;"/>
        <path d="M415.942,45.999C415.3,46.18 413.39,45.775 414.055,47.328C414.721,48.88 414.833,49.992 414.721,51.211C414.613,52.434 414.721,54.983 414.944,55.315C415.166,55.649 416.05,56.425 416.608,56.203C417.161,55.982 416.384,53.764 416.384,53.319C416.384,52.875 417.161,52.209 417.607,52.099C418.051,51.989 417.607,50.102 417.046,49.325C416.495,48.547 415.717,48.106 416.164,47.993C416.608,47.881 417.161,46.997 416.829,46.772C416.495,46.55 416.716,45.775 415.942,45.999Z" style="fill:rgb(216,216,216);fill-opacity:0.47;stroke:rgb(181,181,181);stroke-width:0.24px;"/>
        <path d="M414.833,57.314C414.012,57.515 413.725,58.645 413.725,58.978C413.725,59.31 410.619,59.974 411.614,60.863C412.612,61.75 413.615,61.085 415.166,60.973C416.716,60.863 418.161,60.42 418.161,60.42C418.161,60.42 420.491,60.528 420.159,59.422C419.824,58.313 417.385,58.201 416.941,58.313C416.495,58.423 415.717,57.092 414.833,57.314Z" style="fill:rgb(216,216,216);fill-opacity:0.47;stroke:rgb(181,181,181);stroke-width:0.24px;"/>
        <path d="M412.282,61.64C411.462,62.131 411.948,64.083 411.282,65.414C410.619,66.743 410.059,67.963 409.619,67.963C409.176,67.963 406.845,68.851 406.178,69.516C405.51,70.18 402.298,68.961 401.856,69.516C401.408,70.073 400.524,70.739 399.967,71.179C399.411,71.623 397.86,71.291 398.192,72.623C398.525,73.954 399.301,75.174 399.967,75.174C400.633,75.174 401.522,74.73 401.522,73.509C401.522,72.289 403.073,73.509 403.849,73.399C404.627,73.289 405.07,72.511 405.4,71.623C405.737,70.739 404.959,72.069 406.289,72.4C407.624,72.733 408.064,71.844 408.064,71.511C408.064,71.179 410.505,70.626 410.952,70.294C411.393,69.961 413.17,69.407 413.283,68.961C413.39,68.518 413.283,65.965 413.836,65.745C414.387,65.521 415.166,65.521 414.279,63.97C413.39,62.415 413.39,60.973 412.282,61.64Z" style="fill:rgb(216,216,216);fill-opacity:0.47;stroke:rgb(181,181,181);stroke-width:0.24px;"/>
        <path d="M387.875,83.493C386.23,83.75 385.211,87.268 386.542,87.155C387.875,87.045 389.315,83.273 387.875,83.493Z" style="fill:rgb(216,216,216);fill-opacity:0.47;stroke:rgb(181,181,181);stroke-width:0.24px;"/>
        <path d="M456.326,162.043C455.881,162.261 456.326,163.484 456.768,163.923C457.214,164.371 457.436,165.921 457.321,166.367C457.214,166.812 455.326,167.367 456.213,167.923C457.104,168.476 458.765,167.923 458.543,168.586C458.323,169.25 457.436,170.142 458.433,170.361C459.433,170.582 459.762,169.582 460.208,168.81C460.655,168.031 460.987,167.367 461.758,166.923C462.536,166.48 461.758,165.48 461.317,165.48C460.873,165.48 460.655,166.037 459.652,165.48C458.657,164.925 458.877,165.146 458.212,164.039C457.546,162.927 457.436,161.486 456.326,162.043Z" style="fill:rgb(216,216,216);fill-opacity:0.47;stroke:rgb(181,181,181);stroke-width:0.24px;"/>
        <path d="M455.435,169.142C455.258,169.679 454.331,169.808 453.665,170.361C453,170.916 453.665,171.138 451.778,172.248C449.888,173.359 447.561,174.576 447.119,175.574C446.676,176.574 447.561,177.13 449.336,177.24C451.111,177.351 450.667,177.683 451.889,176.349C453.108,175.023 454.218,174.246 455.66,173.136C457.104,172.025 457.104,170.361 457.104,170.361C457.104,170.361 455.547,168.81 455.435,169.142Z" style="fill:rgb(216,216,216);fill-opacity:0.47;stroke:rgb(181,181,181);stroke-width:0.24px;"/>
        <path d="M418.381,170.029C417.161,171.248 419.608,171.248 419.274,172.47C418.94,173.691 420.937,173.246 421.491,173.027C422.042,172.802 423.375,170.25 423.15,169.582C422.932,168.918 420.712,170.693 420.159,170.582C419.608,170.472 418.381,170.029 418.381,170.029Z" style="fill:rgb(216,216,216);fill-opacity:0.47;stroke:rgb(181,181,181);stroke-width:0.24px;"/>
        <path d="M410.285,161.377C410.285,160.244 409.619,162.595 409.176,161.597C408.73,160.599 409.619,158.933 408.51,159.599C407.401,160.265 406.845,160.82 406.735,161.377C406.623,161.931 404.627,162.15 404.736,161.597C404.848,161.041 405.625,159.711 404.848,159.158C404.07,158.601 402.741,158.379 401.741,158.046C400.742,157.713 401.856,156.605 399.189,157.156C396.526,157.713 395.531,158.379 395.531,158.379C395.531,158.379 393.085,157.601 392.313,158.488C391.535,159.379 390.426,161.041 390.426,161.041C390.426,161.041 387.323,161.156 386.652,161.265C385.986,161.377 384.875,162.261 383.882,162.595C382.88,162.927 381.215,163.259 380.553,162.707C379.886,162.15 378.778,161.156 379.112,160.49C379.442,159.824 381.881,158.933 380.995,157.822C380.107,156.716 379.556,156.492 379.442,155.828C379.33,155.162 379.776,154.828 378.446,153.498C377.113,152.168 377.447,150.613 378,150.394C378.556,150.17 377.664,148.839 377.225,148.285C376.781,147.728 376.781,145.732 377.664,145.175C378.556,144.625 381.215,142.515 381.994,142.515C382.772,142.515 383.989,142.849 384.767,142.293C385.545,141.74 387.875,141.961 387.875,141.515C387.875,141.074 388.097,139.298 388.649,138.744C389.206,138.187 391.535,137.632 391.869,137.187C392.201,136.746 392.755,134.859 393.419,134.527C394.088,134.195 394.644,133.42 395.645,134.527C396.639,135.638 397.64,136.082 398.077,134.972C398.525,133.863 398.192,134.195 399.189,133.197C400.189,132.199 399.077,130.534 400.078,131.529C401.076,132.531 401.741,133.306 401.741,133.306C401.741,133.306 401.634,131.09 402.298,131.09C402.963,131.09 403.627,132.199 403.959,132.199C404.293,132.199 407.29,131.529 407.845,132.308C408.396,133.084 406.289,135.193 407.067,135.97C407.845,136.746 409.396,137.187 410.505,137.855C411.614,138.521 412.944,140.074 413.5,138.744C414.055,137.412 415.166,135.418 414.387,134.418C413.615,133.42 414.613,130.202 414.944,129.976C415.278,129.76 415.832,132.531 416.941,133.752C418.051,134.972 419.162,135.859 419.714,137.187C420.27,138.521 420.376,140.849 421.376,141.627C422.374,142.404 424.373,142.404 424.26,143.402C424.155,144.402 426.48,146.287 427.701,148.175C428.921,150.062 429.033,154.166 429.033,155.939C429.033,157.713 427.701,160.045 426.702,161.377C425.704,162.707 425.372,164.48 424.929,165.146C424.485,165.812 424.707,165.701 423.042,166.146C421.376,166.591 420.159,167.923 419.714,167.478C419.274,167.035 417.717,166.257 417.273,166.812C416.829,167.367 416.274,168.586 415.498,167.254C414.721,165.921 412.944,166.146 412.612,165.921C412.282,165.701 412.282,165.035 412.282,163.923C412.282,162.818 410.839,162.707 410.725,162.373C410.619,162.043 410.285,161.709 410.285,161.377Z" style="fill:rgb(216,216,216);fill-opacity:0.47;stroke:rgb(181,181,181);stroke-width:0.24px;"/>
        <path d="M461.424,139.629C462.872,140.183 465.42,137.632 464.422,137.3C463.425,136.968 461.424,139.629 461.424,139.629Z" style="fill:rgb(216,216,216);fill-opacity:0.47;stroke:rgb(181,181,181);stroke-width:0.24px;"/>
        <path d="M447.341,145.175C447.123,146.255 445.786,145.732 445.124,144.734C444.454,143.736 443.123,142.959 445.124,143.402C447.119,143.847 447.449,144.625 447.341,145.175Z" style="fill:rgb(216,216,216);fill-opacity:0.47;stroke:rgb(181,181,181);stroke-width:0.24px;"/>
        <path d="M353.816,109.011C352.437,109.285 355.813,111.675 356.146,112.007C356.478,112.339 359.473,114.892 359.473,116.113C359.473,117.332 361.468,120.216 362.023,120.658C362.581,121.103 365.354,122.767 365.798,123.654C366.243,124.543 367.24,124.767 367.24,123.543C367.24,122.322 367.461,120.88 368.012,120.216C368.57,119.548 368.346,118.55 367.461,118.662C366.576,118.775 365.798,117.22 364.354,116.224C362.912,115.222 361.802,114.558 360.472,113.117C359.143,111.675 357.476,110.787 356.589,110.009C355.698,109.232 354.369,108.9 353.816,109.011Z" style="fill:rgb(216,216,216);fill-opacity:0.47;stroke:rgb(181,181,181);stroke-width:0.24px;"/>
        <path d="M358.14,103.132C357.256,103.242 357.256,104.908 357.694,105.463C358.14,106.017 359.031,105.683 359.583,107.679C360.139,109.677 361.249,111.675 361.69,112.451C362.135,113.226 364.022,114.336 364.688,114.892C365.354,115.445 366.349,114.668 365.911,114.002C365.466,113.338 364.576,112.339 364.462,111.562C364.354,110.787 363.797,109.564 362.912,108.234C362.023,106.902 361.249,106.57 360.694,105.683C360.139,104.794 358.14,103.132 358.14,103.132Z" style="fill:rgb(216,216,216);fill-opacity:0.47;stroke:rgb(181,181,181);stroke-width:0.24px;"/>
        <path d="M367.461,124.099C366.653,125.111 367.682,125.875 368.012,126.095C368.346,126.316 369.569,126.539 370.679,126.427C371.788,126.316 373.338,125.984 372.121,125.32C370.9,124.654 369.457,125.32 369.012,124.433C368.57,123.543 367.906,123.543 367.461,124.099Z" style="fill:rgb(216,216,216);fill-opacity:0.47;stroke:rgb(181,181,181);stroke-width:0.24px;"/>
        <path d="M373.895,124.988C373.117,125.32 371.9,125.539 372.785,126.316C373.671,127.093 374.229,127.425 375.56,127.316C376.889,127.205 378.888,127.982 378.998,127.316C379.112,126.652 377.777,125.65 377.225,125.65C376.67,125.65 373.895,124.988 373.895,124.988Z" style="fill:rgb(216,216,216);fill-opacity:0.47;stroke:rgb(181,181,181);stroke-width:0.24px;"/>
        <path d="M384.767,128.648C384.518,129.638 386.43,130.092 386.542,128.982C386.652,127.871 384.991,127.761 384.767,128.648Z" style="fill:rgb(216,216,216);fill-opacity:0.47;stroke:rgb(181,181,181);stroke-width:0.24px;"/>
        <path d="M390.65,129.426C390.822,130.638 393.085,128.76 393.085,128.76C393.085,128.76 394.865,128.538 394.865,127.761C394.865,126.984 393.085,125.984 392.421,126.871C391.756,127.761 390.539,128.648 390.65,129.426Z" style="fill:rgb(216,216,216);fill-opacity:0.47;stroke:rgb(181,181,181);stroke-width:0.24px;"/>
        <path d="M385.766,117C385.101,117.22 385.211,117.779 384.991,118.882C384.767,119.994 383.771,120.769 384.657,121.326C385.545,121.88 387.208,119.441 387.653,120.216C388.097,120.994 387.541,121.326 388.319,122.322C389.095,123.322 390.539,123.211 390.539,123.211C390.539,123.211 390.426,120.548 389.206,119.882C387.985,119.216 387.208,118.443 388.649,118.662C390.092,118.882 390.871,118.332 390.539,117.666C390.206,117 388.097,117.332 387.426,117.445C386.762,117.552 385.766,117 385.766,117Z" style="fill:rgb(216,216,216);fill-opacity:0.47;stroke:rgb(181,181,181);stroke-width:0.24px;"/>
        <path d="M386.43,114.779C385.658,115.556 386.209,116.334 387.426,116.224C388.649,116.113 391.201,115.779 391.756,115.779C392.313,115.779 393.085,114.336 392.645,114.336C392.201,114.336 389.095,114.892 388.763,115.004C388.427,115.113 386.43,114.779 386.43,114.779Z" style="fill:rgb(216,216,216);fill-opacity:0.47;stroke:rgb(181,181,181);stroke-width:0.24px;"/>
        <path d="M397.746,113.226C396.729,112.793 394.865,116.886 396.196,117.22C397.526,117.552 398.525,113.558 397.746,113.226Z" style="fill:rgb(216,216,216);fill-opacity:0.47;stroke:rgb(181,181,181);stroke-width:0.24px;"/>
        <path d="M382.549,107.346C382.505,106.562 380.773,107.568 380.659,108.343C380.553,109.123 381.881,109.787 379.776,109.787C377.664,109.787 377.557,111.451 377.113,111.787C376.67,112.119 376.226,112.228 375.333,112.451C374.45,112.673 374.229,113.558 374.007,114.115C373.783,114.668 372.232,113.117 371.788,113.558C371.342,114.002 371.678,116.113 372.453,117.886C373.229,119.66 375.226,120.769 375.78,120.769C376.334,120.769 377.447,120.769 378.225,120.994C378.998,121.214 381.549,121.435 381.441,120.437C381.328,119.441 381.107,117.886 382.215,116.886C383.327,115.89 384.435,115.336 383.882,113.89C383.327,112.451 382.215,111.562 382.992,110.898C383.771,110.232 384.657,110.009 384.657,109.455C384.657,108.9 382.772,111.009 382.549,107.346Z" style="fill:rgb(216,216,216);fill-opacity:0.47;stroke:rgb(181,181,181);stroke-width:0.24px;"/>
        <path d="M387.985,91.705C387.208,91.705 388.097,92.927 386.988,93.703C385.879,94.477 384.657,94.81 385.322,96.142C385.986,97.473 388.319,98.471 387.76,99.028C387.208,99.582 385.545,100.692 385.322,101.689C385.101,102.685 387.985,100.135 388.763,99.135C389.54,98.138 391.09,98.695 391.426,98.138L391.756,97.584C391.756,97.584 390.539,97.361 389.54,97.03C388.54,96.696 387.323,97.918 387.875,96.142C388.427,94.369 390.092,94.702 389.76,93.37C389.427,92.038 388.319,91.705 387.985,91.705Z" style="fill:rgb(216,216,216);fill-opacity:0.47;stroke:rgb(181,181,181);stroke-width:0.24px;"/>
        <path d="M388.983,101.357C388.606,101.493 387.653,103.464 388.875,103.464C390.092,103.464 392.201,103.796 391.756,103.242C391.315,102.685 390.206,100.911 388.983,101.357Z" style="fill:rgb(216,216,216);fill-opacity:0.47;stroke:rgb(181,181,181);stroke-width:0.24px;"/>
        <path d="M392.645,99.694C392.201,99.662 390.756,102.021 392.755,101.91C394.752,101.8 394.196,99.802 392.645,99.694Z" style="fill:rgb(216,216,216);fill-opacity:0.47;stroke:rgb(181,181,181);stroke-width:0.24px;"/>
        <path d="M392.979,103.796C391.426,105.797 391.535,105.353 390.426,104.908C389.315,104.464 387.541,105.904 387.875,106.461C388.205,107.015 390.65,106.349 391.201,107.346C391.756,108.343 391.756,108.457 392.866,108.234C393.978,108.011 395.086,106.461 394.752,105.683C394.422,104.908 392.979,103.796 392.979,103.796Z" style="fill:rgb(216,216,216);fill-opacity:0.47;stroke:rgb(181,181,181);stroke-width:0.24px;"/>
        <path d="M400.524,116.886C399.69,117.72 399.301,117.779 401.19,118.109C403.073,118.443 403.627,118.443 402.851,119.328C402.075,120.216 401.522,121.326 402.186,121.435C402.851,121.548 404.848,120.994 405.07,121.435C405.292,121.88 404.627,121.99 406.845,122.322C409.062,122.658 409.508,123.437 409.953,123.877C410.391,124.32 411.726,125.763 410.839,125.763C409.953,125.763 408.953,126.871 409.619,126.984C410.285,127.093 412.282,126.652 412.396,126.984C412.504,127.316 413.615,129.426 414.721,129.314C415.832,129.202 416.495,127.205 417.046,126.652C417.607,126.095 419.824,125.763 420.044,126.761C420.27,127.761 420.937,128.76 422.267,129.426C423.596,130.092 425.151,130.756 425.263,130.202C425.372,129.646 424.594,127.539 423.707,127.205C422.82,126.871 421.269,124.988 421.269,124.209C421.269,123.437 419.938,123.211 419.274,122.658C418.603,122.103 418.051,120.548 416.384,120.216C414.721,119.882 414.279,119.328 412.504,118.443C410.725,117.552 406.735,117.552 406.623,118.109C406.515,118.662 406.623,118.109 405.292,117.666C403.959,117.22 402.963,117.666 402.63,116.886C402.298,116.113 401.522,115.89 400.524,116.886Z" style="fill:rgb(216,216,216);fill-opacity:0.47;stroke:rgb(181,181,181);stroke-width:0.24px;"/>
    </g>
</svg>
